<mxfile modified="2019-10-25T14:35:50.202Z" host="www.draw.io" agent="Mozilla/5.0 (Windows NT 10.0; Win64; x64) AppleWebKit/537.36 (KHTML, like Gecko) Chrome/77.0.3865.120 Safari/537.36" etag="XOwkWfHjYMa4lqi1pszG" version="12.1.7" type="github" pages="1">
  <diagram name="Page-1" id="97a40813-6b03-0c74-37c1-0168de264b11">
    <mxGraphModel dx="1400" dy="2156" grid="1" gridSize="10" guides="1" tooltips="1" connect="1" arrows="1" fold="1" page="1" pageScale="1" pageWidth="700" pageHeight="500" background="#ffffff" math="0" shadow="0">
      <root>
        <mxCell id="0"/>
        <mxCell id="1" parent="0"/>
        <mxCell id="4-KvWvnKd3yDUhxHWgDS-2" value="" style="ellipse;shape=cloud;whiteSpace=wrap;html=1;" vertex="1" parent="1">
          <mxGeometry x="104" y="-829" width="240" height="79" as="geometry"/>
        </mxCell>
        <mxCell id="4-KvWvnKd3yDUhxHWgDS-3" value="&lt;span style=&quot;font-size: 22px;&quot;&gt;GitHub&lt;/span&gt;" style="text;html=1;resizable=0;points=[];autosize=1;align=left;verticalAlign=top;spacingTop=-4;fontSize=22;" vertex="1" parent="1">
          <mxGeometry x="224" y="-790" width="50" height="20" as="geometry"/>
        </mxCell>
        <mxCell id="4-KvWvnKd3yDUhxHWgDS-4" value="lively4-&lt;br&gt;server" style="shape=cylinder;whiteSpace=wrap;html=1;boundedLbl=1;backgroundOutline=1;" vertex="1" parent="1">
          <mxGeometry x="179" y="-870" width="80" height="71" as="geometry"/>
        </mxCell>
        <mxCell id="4-KvWvnKd3yDUhxHWgDS-5" value="" style="ellipse;shape=cloud;whiteSpace=wrap;html=1;" vertex="1" parent="1">
          <mxGeometry x="44" y="-660" width="160" height="60" as="geometry"/>
        </mxCell>
        <mxCell id="4-KvWvnKd3yDUhxHWgDS-6" value="&lt;font style=&quot;font-size: 14px&quot;&gt;lively-kerne.org&lt;/font&gt;" style="text;html=1;fontSize=22;" vertex="1" parent="1">
          <mxGeometry x="74" y="-650" width="90" height="40" as="geometry"/>
        </mxCell>
        <mxCell id="4-KvWvnKd3yDUhxHWgDS-7" value="lively4-core" style="shape=cylinder;whiteSpace=wrap;html=1;boundedLbl=1;backgroundOutline=1;" vertex="1" parent="1">
          <mxGeometry x="109" y="-850" width="80" height="70" as="geometry"/>
        </mxCell>
        <mxCell id="4-KvWvnKd3yDUhxHWgDS-8" value="" style="shape=flexArrow;endArrow=classic;startArrow=classic;html=1;fontSize=22;exitX=0.5;exitY=0;exitDx=0;exitDy=0;entryX=0;entryY=0.5;entryDx=0;entryDy=0;" edge="1" parent="1" source="4-KvWvnKd3yDUhxHWgDS-9" target="4-KvWvnKd3yDUhxHWgDS-7">
          <mxGeometry width="50" height="50" relative="1" as="geometry">
            <mxPoint x="150" y="-680" as="sourcePoint"/>
            <mxPoint x="148.34481074892244" y="-780" as="targetPoint"/>
            <Array as="points">
              <mxPoint x="74" y="-815"/>
            </Array>
          </mxGeometry>
        </mxCell>
        <mxCell id="4-KvWvnKd3yDUhxHWgDS-9" value="lively4/&lt;br&gt;" style="shape=cylinder;whiteSpace=wrap;html=1;boundedLbl=1;backgroundOutline=1;" vertex="1" parent="1">
          <mxGeometry x="44" y="-720" width="60" height="80" as="geometry"/>
        </mxCell>
        <mxCell id="4-KvWvnKd3yDUhxHWgDS-10" value="&lt;font style=&quot;font-size: 10px&quot;&gt;git&lt;/font&gt;" style="text;html=1;strokeColor=none;fillColor=none;align=center;verticalAlign=middle;whiteSpace=wrap;rounded=0;fontSize=22;" vertex="1" parent="1">
          <mxGeometry x="124" y="-849" width="40" height="20" as="geometry"/>
        </mxCell>
        <mxCell id="4-KvWvnKd3yDUhxHWgDS-11" value="&lt;font style=&quot;font-size: 10px&quot;&gt;git&lt;/font&gt;" style="text;html=1;strokeColor=none;fillColor=none;align=center;verticalAlign=middle;whiteSpace=wrap;rounded=0;fontSize=22;" vertex="1" parent="1">
          <mxGeometry x="54" y="-720" width="40" height="20" as="geometry"/>
        </mxCell>
        <mxCell id="4-KvWvnKd3yDUhxHWgDS-12" value="&lt;font style=&quot;font-size: 10px&quot;&gt;git&lt;/font&gt;" style="text;html=1;strokeColor=none;fillColor=none;align=center;verticalAlign=middle;whiteSpace=wrap;rounded=0;fontSize=22;" vertex="1" parent="1">
          <mxGeometry x="194" y="-870" width="40" height="20" as="geometry"/>
        </mxCell>
        <mxCell id="4-KvWvnKd3yDUhxHWgDS-13" value="&lt;span&gt;www.draw.io&lt;/span&gt;" style="ellipse;shape=cloud;whiteSpace=wrap;html=1;" vertex="1" parent="1">
          <mxGeometry x="434" y="-650" width="160" height="60" as="geometry"/>
        </mxCell>
        <mxCell id="4-KvWvnKd3yDUhxHWgDS-14" value="" style="endArrow=classic;startArrow=classic;html=1;fontSize=22;entryX=0.927;entryY=0.522;entryDx=0;entryDy=0;entryPerimeter=0;curved=1;" edge="1" parent="1" source="4-KvWvnKd3yDUhxHWgDS-20" target="4-KvWvnKd3yDUhxHWgDS-2">
          <mxGeometry width="50" height="50" relative="1" as="geometry">
            <mxPoint x="470.6666666666665" y="-680" as="sourcePoint"/>
            <mxPoint x="514" y="-815" as="targetPoint"/>
            <Array as="points">
              <mxPoint x="434" y="-810"/>
            </Array>
          </mxGeometry>
        </mxCell>
        <mxCell id="4-KvWvnKd3yDUhxHWgDS-15" value="" style="ellipse;shape=cloud;whiteSpace=wrap;html=1;" vertex="1" parent="1">
          <mxGeometry x="344" y="-960" width="310" height="141" as="geometry"/>
        </mxCell>
        <mxCell id="4-KvWvnKd3yDUhxHWgDS-16" value="&lt;span style=&quot;font-size: 22px&quot;&gt;dropbox&lt;/span&gt;" style="text;html=1;resizable=0;points=[];autosize=1;align=left;verticalAlign=top;spacingTop=-4;fontSize=22;" vertex="1" parent="1">
          <mxGeometry x="474" y="-870" width="90" height="30" as="geometry"/>
        </mxCell>
        <mxCell id="4-KvWvnKd3yDUhxHWgDS-17" value="&lt;span style=&quot;font-size: 22px&quot;&gt;google&lt;/span&gt;" style="text;html=1;resizable=0;points=[];autosize=1;align=left;verticalAlign=top;spacingTop=-4;fontSize=22;" vertex="1" parent="1">
          <mxGeometry x="434" y="-900" width="80" height="30" as="geometry"/>
        </mxCell>
        <mxCell id="4-KvWvnKd3yDUhxHWgDS-18" value="&lt;span style=&quot;font-size: 22px&quot;&gt;onedrive&lt;/span&gt;" style="text;html=1;resizable=0;points=[];autosize=1;align=left;verticalAlign=top;spacingTop=-4;fontSize=22;" vertex="1" parent="1">
          <mxGeometry x="519" y="-920" width="100" height="30" as="geometry"/>
        </mxCell>
        <mxCell id="4-KvWvnKd3yDUhxHWgDS-19" value="&lt;font style=&quot;font-size: 15px&quot;&gt;API&lt;/font&gt;" style="ellipse;whiteSpace=wrap;html=1;aspect=fixed;fontSize=22;" vertex="1" parent="1">
          <mxGeometry x="384" y="-950" width="45" height="45" as="geometry"/>
        </mxCell>
        <mxCell id="4-KvWvnKd3yDUhxHWgDS-20" value="&lt;font style=&quot;font-size: 16px&quot;&gt;&lt;span&gt;figure drawing&lt;/span&gt;&lt;/font&gt;" style="rounded=0;whiteSpace=wrap;html=1;fontSize=22;" vertex="1" parent="1">
          <mxGeometry x="406.5" y="-660" width="120" height="30" as="geometry"/>
        </mxCell>
      </root>
    </mxGraphModel>
  </diagram>
</mxfile>
